<svg xmlns="http://www.w3.org/2000/svg" viewBox="0 0 24 24" width="24" height="24" color="#000000" fill="none">
    <defs />
    <path fill="#141B34" d="M15.367,3.388 C16.23,3.753 16.508,4.633 16.627,5.498 C16.75,6.385 16.75,7.606 16.75,9.124 L16.75,14.879 C16.75,16.397 16.75,17.618 16.627,18.505 C16.508,19.37 16.23,20.25 15.367,20.615 C14.496,20.983 13.678,20.555 12.992,20.028 C12.289,19.488 11.443,18.624 10.393,17.552 L10.393,17.551 L10.347,17.504 C9.807,16.954 9.449,16.687 9.087,16.537 C8.722,16.387 8.279,16.323 7.506,16.323 L7.467,16.323 C6.799,16.323 6.24,16.323 5.787,16.276 C5.312,16.226 4.871,16.119 4.474,15.849 C3.718,15.333 3.429,14.578 3.32,13.884 C3.238,13.366 3.247,12.798 3.255,12.34 C3.257,12.219 3.259,12.105 3.259,12.002 C3.259,11.898 3.257,11.784 3.255,11.663 C3.247,11.205 3.238,10.637 3.32,10.119 C3.429,9.425 3.718,8.67 4.474,8.155 C4.871,7.884 5.312,7.777 5.787,7.727 C6.24,7.68 6.799,7.68 7.467,7.68 L7.506,7.68 C8.279,7.68 8.722,7.616 9.087,7.466 C9.449,7.316 9.807,7.05 10.347,6.499 L10.393,6.452 C11.443,5.379 12.289,4.515 12.992,3.976 C13.678,3.448 14.496,3.02 15.367,3.388 Z M11.418,7.548 C10.83,8.149 10.302,8.586 9.66,8.852 C9.019,9.117 8.338,9.18 7.506,9.18 C6.789,9.18 6.308,9.181 5.942,9.219 C5.589,9.256 5.427,9.32 5.32,9.394 C5.029,9.592 4.874,9.892 4.801,10.353 C4.742,10.729 4.748,11.117 4.754,11.552 C4.756,11.696 4.759,11.846 4.759,12.002 C4.759,12.158 4.756,12.307 4.754,12.451 L4.754,12.451 C4.748,12.887 4.742,13.274 4.801,13.65 C4.874,14.111 5.029,14.411 5.32,14.609 C5.427,14.683 5.589,14.747 5.942,14.784 C6.308,14.822 6.789,14.823 7.506,14.823 C8.338,14.823 9.019,14.886 9.66,15.151 C10.302,15.417 10.83,15.854 11.418,16.455 C12.525,17.585 13.298,18.371 13.905,18.838 C14.539,19.324 14.729,19.256 14.783,19.233 C14.845,19.207 15.03,19.105 15.142,18.299 C15.248,17.528 15.25,16.412 15.25,14.815 L15.25,9.188 C15.25,7.591 15.248,6.475 15.142,5.704 C15.03,4.898 14.845,4.796 14.783,4.77 C14.729,4.747 14.539,4.679 13.905,5.165 C13.298,5.632 12.525,6.418 11.418,7.548 Z M19.596,8.547 C20.32,9.495 20.75,10.699 20.75,12.002 C20.75,13.304 20.32,14.508 19.596,15.457 C19.345,15.786 18.874,15.849 18.545,15.598 C18.216,15.347 18.153,14.876 18.404,14.547 C18.931,13.856 19.25,12.972 19.25,12.002 C19.25,11.031 18.931,10.147 18.404,9.457 C18.153,9.127 18.216,8.657 18.545,8.405 C18.874,8.154 19.345,8.217 19.596,8.547 Z" />
</svg>